# xmcd
#
# Track frame offsets: 
#        150
#        36224
#        72501
#        116183
#        148494
#        176893
#        211839
#        241528
#        275652
#        311971
#        337233
#
# Disc length: 4759 seconds
#
# Revision: 0
# Processed by: cddbd v1.5.2PL0 Copyright (c) Steve Scherf et al.
# Submitted via: ExactAudioCopy v1.0b3
#
DISCID=ba12950b
DTITLE=Various Artist - Trance Invaders Vol. 2
DYEAR=1900
DGENRE=
TTITLE0=Savon - Believe (Andy Jay Powell Mix)
TTITLE1=Riot 303 Vs. Observer - Summer Of '94 (Original Mix)
TTITLE2=Aviation - Outshine (Original Mix)
TTITLE3=Digital DNA - Stage One
TTITLE4=United DJs Aka DJ Hypnotic and Synthetic - Taifun
TTITLE5=Stefan Mone - Beautiful Ways (Misja Helsloot Rmx)
TTITLE6=Running Man - Concrete (Club Mix)
TTITLE7=Van Roezel - Space Romance (Andy Jay Powell Meets Van Roezel M
TTITLE7=ix)
TTITLE8=The Squad - Contradiction (Vengeance Rmx)
TTITLE9=Butcher - Let The Sun Go Down (Observer Vs. DJ Spacecase Rmx)
TTITLE10=Miss Spectra - Living For Tomorrow (DJ Boombastic A Remix)
EXTD=
EXTT0=
EXTT1=
EXTT2=
EXTT3=
EXTT4=
EXTT5=
EXTT6=
EXTT7=
EXTT8=
EXTT9=
EXTT10=
PLAYORDER=
